<svg width="7114" height="4004" xmlns="http://www.w3.org/2000/svg" xmlns:xlink="http://www.w3.org/1999/xlink" xml:space="preserve" overflow="hidden"><defs><filter id="fx0" x="-10%" y="-10%" width="120%" height="120%" filterUnits="userSpaceOnUse" primitiveUnits="userSpaceOnUse"><feComponentTransfer color-interpolation-filters="sRGB"><feFuncR type="discrete" tableValues="0 0"/><feFuncG type="discrete" tableValues="0 0"/><feFuncB type="discrete" tableValues="0 0"/><feFuncA type="linear" slope="0.4" intercept="0"/></feComponentTransfer><feGaussianBlur stdDeviation="6.11111 6.11111"/></filter><filter id="fx1" x="-10%" y="-10%" width="120%" height="120%" filterUnits="userSpaceOnUse" primitiveUnits="userSpaceOnUse"><feComponentTransfer color-interpolation-filters="sRGB"><feFuncR type="discrete" tableValues="0 0"/><feFuncG type="discrete" tableValues="0 0"/><feFuncB type="discrete" tableValues="0 0"/><feFuncA type="linear" slope="0.4" intercept="0"/></feComponentTransfer><feGaussianBlur stdDeviation="6.11111 6.11111"/></filter><filter id="fx2" x="-10%" y="-10%" width="120%" height="120%" filterUnits="userSpaceOnUse" primitiveUnits="userSpaceOnUse"><feComponentTransfer color-interpolation-filters="sRGB"><feFuncR type="discrete" tableValues="0 0"/><feFuncG type="discrete" tableValues="0 0"/><feFuncB type="discrete" tableValues="0 0"/><feFuncA type="linear" slope="0.4" intercept="0"/></feComponentTransfer><feGaussianBlur stdDeviation="6.11111 6.11111"/></filter><filter id="fx3" x="-10%" y="-10%" width="120%" height="120%" filterUnits="userSpaceOnUse" primitiveUnits="userSpaceOnUse"><feComponentTransfer color-interpolation-filters="sRGB"><feFuncR type="discrete" tableValues="0 0"/><feFuncG type="discrete" tableValues="0 0"/><feFuncB type="discrete" tableValues="0 0"/><feFuncA type="linear" slope="0.4" intercept="0"/></feComponentTransfer><feGaussianBlur stdDeviation="6.11111 6.11111"/></filter><clipPath id="clip4"><rect x="-415" y="-754" width="7114" height="4004"/></clipPath><clipPath id="clip5"><path d="M4770.7 889.5 4296.5 1099.5 4770.7 1309.5 6667.5 1309.5 6667.5 889.5ZM-415-754 6699-754 6699 3250-415 3250Z" fill-rule="evenodd" clip-rule="evenodd"/></clipPath><clipPath id="clip6"><path d="M-403.5 2122.5-403.5 2542.5 1493.3 2542.5 1967.5 2332.5 1493.3 2122.5ZM-415-754 6699-754 6699 3250-415 3250Z" fill-rule="evenodd" clip-rule="evenodd"/></clipPath><clipPath id="clip7"><path d="M-403.5-52.5001-403.5 367.5 1493.3 367.5 1967.5 157.5 1493.3-52.5001ZM-415-754 6699-754 6699 3250-415 3250Z" fill-rule="evenodd" clip-rule="evenodd"/></clipPath><clipPath id="clip8"><path d="M534.5-742.5 534.5 3218.5 3065 3218.5C4462.56 3218.5 5595.5 2331.8 5595.5 1238 5595.5 144.2 4462.56-742.5 3065-742.5ZM-415-754 6699-754 6699 3250-415 3250Z" fill-rule="evenodd" clip-rule="evenodd"/></clipPath></defs><g clip-path="url(#clip4)" transform="translate(415 754)"><g clip-path="url(#clip5)"><g filter="url(#fx0)" transform="translate(4281 877)"><g><path d="M2396.22 22.2228 2396.22 442.223 499.423 442.223 25.2229 232.223 499.423 22.2228Z" stroke="#005AFF" stroke-width="5" stroke-miterlimit="8" fill="#005AFF" fill-rule="evenodd"/></g></g></g><path d="M6667.5 889.5 6667.5 1309.5 4770.7 1309.5 4296.5 1099.5 4770.7 889.5Z" stroke="#005AFF" stroke-width="4.58333" stroke-miterlimit="8" fill="#005AFF" fill-rule="evenodd"/><g clip-path="url(#clip6)"><g filter="url(#fx1)" transform="translate(-416 2110)"><g><path d="M22.2225 442.223 22.2225 22.223 1919.02 22.223 2393.22 232.223 1919.02 442.223Z" stroke="#005AFF" stroke-width="5" stroke-miterlimit="8" fill="#005AFF" fill-rule="evenodd"/></g></g></g><path d="M-403.5 2542.5-403.5 2122.5 1493.3 2122.5 1967.5 2332.5 1493.3 2542.5Z" stroke="#005AFF" stroke-width="4.58333" stroke-miterlimit="8" fill="#005AFF" fill-rule="evenodd"/><g clip-path="url(#clip7)"><g filter="url(#fx2)" transform="translate(-416 -65)"><g><path d="M22.2227 442.223 22.2227 22.2226 1919.02 22.2226 2393.22 232.223 1919.02 442.223Z" stroke="#005AFF" stroke-width="5" stroke-miterlimit="8" fill="#005AFF" fill-rule="evenodd"/></g></g></g><path d="M-403.5 367.5-403.5-52.5001 1493.3-52.5001 1967.5 157.5 1493.3 367.5Z" stroke="#005AFF" stroke-width="4.58333" stroke-miterlimit="8" fill="#005AFF" fill-rule="evenodd"/><g clip-path="url(#clip8)"><g filter="url(#fx3)" transform="translate(522 -755)"><g><path d="M22.2228 22.2227 2552.72 22.2227C3950.28 22.2227 5083.22 908.923 5083.22 2002.72 5083.22 3096.52 3950.28 3983.22 2552.72 3983.22L22.2228 3983.22Z" stroke="#FFC000" stroke-width="5" stroke-miterlimit="8" fill="#FF0000" fill-rule="evenodd"/></g></g></g><path d="M534.5-742.5 3065-742.5C4462.56-742.5 5595.5 144.2 5595.5 1238 5595.5 2331.8 4462.56 3218.5 3065 3218.5L534.5 3218.5Z" stroke="#FFC000" stroke-width="4.58333" stroke-miterlimit="8" fill="#FF0000" fill-rule="evenodd"/></g></svg>